<svg width="339" height="339" viewBox="0 0 339 339" fill="none" xmlns="http://www.w3.org/2000/svg">
<rect width="339" height="339" rx="25" fill="#F5EFE7"/>
<path d="M176.81 87.8416L160 73.2729" stroke="#EB8E2B" stroke-width="4" stroke-linecap="round"/>
<path d="M215.246 66.0234L212.117 44" stroke="#EB8E2B" stroke-width="4" stroke-linecap="round"/>
<path d="M260.958 76.2577L273.045 57.5837" stroke="#EB8E2B" stroke-width="4" stroke-linecap="round"/>
<path d="M282.977 115.183L304.942 111.67" stroke="#EB8E2B" stroke-width="4" stroke-linecap="round"/>
<path d="M276.901 160.142L296.373 170.898" stroke="#EB8E2B" stroke-width="4" stroke-linecap="round"/>
<circle cx="221.637" cy="128.05" r="45.4472" fill="#EB8E2B" stroke="#EB8E2B"/>
<path d="M118.758 107.639C134.307 99.3693 149.813 98.0238 163.903 100.986C177.962 103.942 190.563 111.173 200.425 119.997C209.611 128.217 216.523 137.913 220.018 147.008C239.833 139.879 255.356 143.308 266.019 151.809C276.427 160.109 281.953 173.051 282.425 184.921C301.158 188.714 313.386 195.956 320.559 205.082C327.95 214.486 329.764 225.625 328.11 236.355C326.462 247.056 321.363 257.43 314.801 265.555C308.267 273.646 300.086 279.742 292.104 281.54C201.586 301.924 134.022 299.689 63.6699 281.525C33.3098 273.687 13.8458 241.925 13.0273 212.335C12.6161 197.466 16.8929 182.922 27.0537 172.082C37.0596 161.407 52.5529 154.556 74.2256 154.322C88.2089 130.578 103.444 115.784 118.758 107.639Z" stroke="#F5EFE7" stroke-width="4"/>
<path d="M75.377 156.315C131.411 59.9379 206.503 112.609 218.822 149.592C259.174 133.901 280.458 163.039 280.458 186.574C357.791 201.141 321.191 272.939 291.665 279.589C201.435 299.908 134.194 297.667 64.1699 279.589C5.58087 264.462 -12.0266 156.315 75.377 156.315ZM200.448 253.961C187.994 265.167 164.46 264.047 162.346 264.047C162.347 266.288 162.346 269.65 162.346 269.65C162.368 269.652 190.368 271.886 204.931 259.564C203.546 257.128 202.514 255.855 200.448 253.961ZM247.692 191.714C235.425 191.407 168.609 189.939 154.374 194.006C140.139 189.939 73.3218 191.407 61.0547 191.714C59.9724 191.741 59.1172 192.626 59.1172 193.709V200.97C59.1172 202.075 60.0127 202.97 61.1172 202.97H64.8418C65.3937 202.971 65.844 203.418 65.8633 203.97C66.078 210.188 68.3657 243.314 92.7373 243.314H117.392C136.997 243.314 144.599 214.159 146.195 206.855C146.403 205.907 147.237 205.212 148.207 205.212H160.54C161.51 205.212 162.345 205.907 162.553 206.855C164.149 214.159 171.75 243.314 191.355 243.314H216.01C242.412 243.314 244.89 210.188 245.123 203.97C245.144 203.418 245.595 202.97 246.147 202.97H247.63C248.734 202.97 249.63 202.075 249.63 200.97V193.709C249.63 192.626 248.775 191.741 247.692 191.714Z" fill="black"/>
</svg>
